G04 MADE WITH FRITZING*
G04 WWW.FRITZING.ORG*
G04 DOUBLE SIDED*
G04 HOLES PLATED*
G04 CONTOUR ON CENTER OF CONTOUR VECTOR*
%ASAXBY*%
%FSLAX23Y23*%
%MOIN*%
%OFA0B0*%
%SFA1.0B1.0*%
%ADD10C,0.039370*%
%ADD11C,0.082000*%
%ADD12C,0.078000*%
%ADD13C,0.075000*%
%ADD14C,0.070000*%
%ADD15R,0.085619X0.093668*%
%ADD16R,0.082000X0.082000*%
%ADD17R,0.075000X0.075000*%
%ADD18C,0.016000*%
%ADD19C,0.024000*%
%ADD20C,0.048000*%
%ADD21C,0.032000*%
%LNCOPPER1*%
G90*
G70*
G54D10*
X115Y519D03*
X2294Y926D03*
G54D11*
X2395Y312D03*
X2395Y610D03*
G54D12*
X1595Y1431D03*
X1695Y1431D03*
X1795Y1431D03*
X1595Y1831D03*
X1695Y1831D03*
X1795Y1831D03*
X2125Y111D03*
X2225Y111D03*
X2525Y911D03*
X2625Y911D03*
X2625Y211D03*
X2525Y211D03*
X2225Y211D03*
X2125Y211D03*
X2025Y211D03*
X195Y1831D03*
X295Y1831D03*
X395Y1831D03*
X495Y1831D03*
X595Y1831D03*
X695Y1831D03*
X795Y1831D03*
X895Y1831D03*
X995Y1831D03*
X1095Y1831D03*
X1195Y1831D03*
X2625Y1631D03*
X2625Y1531D03*
X1695Y112D03*
X1595Y112D03*
X1395Y112D03*
X1495Y112D03*
X195Y931D03*
X295Y931D03*
X395Y931D03*
X495Y931D03*
X595Y931D03*
X695Y931D03*
X795Y931D03*
X895Y931D03*
X995Y931D03*
X1095Y931D03*
X1195Y931D03*
X1295Y931D03*
X1395Y931D03*
X1495Y931D03*
X1595Y931D03*
X1695Y931D03*
X1795Y931D03*
X1895Y931D03*
X1995Y931D03*
X2095Y931D03*
X195Y931D03*
X295Y931D03*
X395Y931D03*
X495Y931D03*
X595Y931D03*
X695Y931D03*
X795Y931D03*
X895Y931D03*
X995Y931D03*
X1095Y931D03*
X1195Y931D03*
X1295Y931D03*
X1395Y931D03*
X1495Y931D03*
X1595Y931D03*
X1695Y931D03*
X1795Y931D03*
X1895Y931D03*
X1995Y931D03*
X2095Y931D03*
X195Y831D03*
X295Y831D03*
X395Y831D03*
X495Y831D03*
X595Y831D03*
X695Y831D03*
X795Y831D03*
X895Y831D03*
X995Y831D03*
X1095Y831D03*
X1195Y831D03*
X1295Y831D03*
X1395Y831D03*
X1495Y831D03*
X1595Y831D03*
X1695Y831D03*
X1795Y831D03*
X1895Y831D03*
X1995Y831D03*
X2095Y831D03*
X195Y831D03*
X295Y831D03*
X395Y831D03*
X495Y831D03*
X595Y831D03*
X695Y831D03*
X795Y831D03*
X895Y831D03*
X995Y831D03*
X1095Y831D03*
X1195Y831D03*
X1295Y831D03*
X1395Y831D03*
X1495Y831D03*
X1595Y831D03*
X1695Y831D03*
X1795Y831D03*
X1895Y831D03*
X1995Y831D03*
X2095Y831D03*
G54D13*
X1515Y1611D03*
X1415Y1611D03*
X1315Y1611D03*
X1775Y1731D03*
X1375Y1731D03*
G54D12*
X1195Y112D03*
X1295Y112D03*
X2625Y1831D03*
X2625Y1731D03*
G54D13*
X995Y612D03*
X995Y212D03*
X195Y352D03*
X595Y352D03*
X195Y252D03*
X595Y252D03*
X895Y612D03*
X895Y212D03*
X695Y612D03*
X695Y212D03*
G54D14*
X1095Y512D03*
X1095Y612D03*
X595Y512D03*
X595Y612D03*
X795Y512D03*
X795Y612D03*
G54D13*
X2395Y1131D03*
X2095Y1131D03*
X2395Y1231D03*
X2095Y1231D03*
X2395Y1331D03*
X2095Y1331D03*
X2395Y1431D03*
X2095Y1431D03*
X2395Y1531D03*
X2095Y1531D03*
X2395Y1631D03*
X2095Y1631D03*
X2395Y1731D03*
X2095Y1731D03*
X2395Y1831D03*
X2095Y1831D03*
G54D11*
X2055Y411D03*
X2055Y709D03*
G54D13*
X1895Y612D03*
X1895Y312D03*
X1795Y612D03*
X1795Y312D03*
X1695Y612D03*
X1695Y312D03*
X1595Y612D03*
X1595Y312D03*
X1495Y612D03*
X1495Y312D03*
X1395Y612D03*
X1395Y312D03*
X1295Y612D03*
X1295Y312D03*
X1195Y612D03*
X1195Y312D03*
X195Y1151D03*
X195Y1451D03*
X295Y1151D03*
X295Y1451D03*
X395Y1151D03*
X395Y1451D03*
X495Y1151D03*
X495Y1451D03*
X595Y1151D03*
X595Y1451D03*
X695Y1151D03*
X695Y1451D03*
X795Y1151D03*
X795Y1451D03*
X895Y1151D03*
X895Y1451D03*
X995Y1151D03*
X995Y1451D03*
X1095Y1151D03*
X1095Y1451D03*
X1435Y1211D03*
X1735Y1211D03*
X1435Y1111D03*
X1735Y1111D03*
X1915Y1431D03*
X1915Y1831D03*
X1795Y1311D03*
X1395Y1311D03*
G54D12*
X195Y112D03*
X295Y112D03*
X395Y112D03*
X495Y112D03*
X595Y112D03*
X695Y112D03*
X795Y112D03*
X895Y112D03*
G54D15*
X1835Y131D03*
G54D16*
X2395Y311D03*
G54D15*
X2625Y101D03*
X75Y111D03*
X85Y1831D03*
X1775Y1621D03*
X1915Y1311D03*
G54D17*
X2395Y1131D03*
G54D16*
X2055Y410D03*
G54D17*
X1895Y612D03*
X195Y1151D03*
X1435Y1211D03*
G54D18*
X455Y1051D02*
X125Y1051D01*
D02*
X556Y1221D02*
X85Y1222D01*
D02*
X716Y1271D02*
X46Y1271D01*
D02*
X85Y1222D02*
X86Y722D01*
D02*
X125Y1051D02*
X126Y762D01*
D02*
X45Y680D02*
X1244Y680D01*
D02*
X1244Y680D02*
X1288Y808D01*
D02*
X46Y1271D02*
X45Y680D01*
D02*
X86Y722D02*
X1155Y722D01*
D02*
X1155Y722D02*
X1187Y808D01*
D02*
X126Y762D02*
X1075Y762D01*
D02*
X1075Y762D02*
X1089Y808D01*
D02*
X783Y1171D02*
X716Y1271D01*
D02*
X584Y1171D02*
X556Y1221D01*
D02*
X487Y1130D02*
X455Y1051D01*
G54D19*
D02*
X1775Y1663D02*
X1775Y1703D01*
D02*
X1878Y1311D02*
X1824Y1311D01*
G54D20*
D02*
X1795Y203D02*
X1595Y203D01*
D02*
X1595Y203D02*
X1595Y201D01*
D02*
X1812Y173D02*
X1795Y203D01*
G54D21*
D02*
X2625Y143D02*
X2625Y176D01*
D02*
X113Y111D02*
X159Y111D01*
D02*
X123Y1831D02*
X160Y1831D01*
G54D20*
D02*
X114Y431D02*
X115Y489D01*
D02*
X1885Y350D02*
X1866Y431D01*
G54D21*
D02*
X1837Y1151D02*
X1765Y1194D01*
D02*
X1836Y1012D02*
X1837Y1151D01*
D02*
X2175Y1012D02*
X1836Y1012D01*
D02*
X2175Y711D02*
X2175Y1012D01*
D02*
X2093Y710D02*
X2175Y711D01*
D02*
X1736Y41D02*
X2295Y41D01*
D02*
X2295Y41D02*
X2294Y902D01*
D02*
X1713Y81D02*
X1736Y41D01*
D02*
X1314Y1132D02*
X1315Y1577D01*
D02*
X1402Y1117D02*
X1314Y1132D01*
D02*
X1402Y1115D02*
X1129Y1147D01*
D02*
X2396Y1060D02*
X2015Y1060D01*
D02*
X2015Y1060D02*
X2017Y1540D01*
D02*
X1595Y1540D02*
X1541Y1589D01*
D02*
X2017Y1540D02*
X1595Y1540D01*
D02*
X2396Y1097D02*
X2396Y1060D01*
D02*
X2395Y1097D02*
X2395Y647D01*
G54D20*
D02*
X1195Y272D02*
X1195Y153D01*
D02*
X1395Y272D02*
X1395Y153D01*
G54D19*
D02*
X895Y1480D02*
X895Y1801D01*
D02*
X795Y1480D02*
X795Y1801D01*
D02*
X695Y1480D02*
X695Y1801D01*
D02*
X1095Y1480D02*
X1095Y1801D01*
G54D20*
D02*
X2257Y1630D02*
X2255Y1912D01*
D02*
X2135Y1631D02*
X2257Y1630D01*
D02*
X2255Y1912D02*
X2496Y1912D01*
D02*
X2496Y1912D02*
X2496Y1672D01*
D02*
X2496Y1672D02*
X2586Y1644D01*
D02*
X1612Y647D02*
X1645Y711D01*
G54D19*
D02*
X995Y1480D02*
X995Y1801D01*
D02*
X595Y1480D02*
X595Y1801D01*
G54D20*
D02*
X1866Y431D02*
X114Y431D01*
D02*
X1595Y201D02*
X1595Y153D01*
D02*
X1645Y711D02*
X2012Y709D01*
G04 End of Copper1*
M02*