; NON-PLATED HOLES START AT T1
; THROUGH (PLATED) HOLES START AT T100
M48
INCH
T100C0.015748
T101C0.035000
T102C0.042000
T103C0.030000
T104C0.038000
%
T100
X022940Y009264
X001153Y005190
T101
X004954Y014512
X023954Y013312
X017945Y003115
X006945Y006115
X020954Y011312
X009954Y011512
X015945Y006115
X023954Y012312
X007954Y014512
X008945Y002115
X001954Y011512
X013954Y013112
X010954Y011512
X009945Y006115
X014154Y016112
X023954Y011312
X018945Y006115
X012945Y003115
X004954Y011512
X002954Y014512
X013754Y017312
X019154Y018312
X015945Y003115
X007954Y011512
X013945Y006115
X005954Y014512
X006945Y002115
X001945Y003515
X018945Y003115
X016945Y006115
X008954Y014512
X009945Y002115
X020954Y018312
X002954Y011512
X001945Y002515
X014354Y012112
X015154Y016112
X020954Y017312
X013945Y003115
X014354Y011112
X023954Y018312
X005954Y011512
X017954Y013112
X011945Y006115
X017354Y012112
X003954Y014512
X019154Y014312
X020954Y016312
X023954Y017312
X016945Y003115
X017354Y011112
X008954Y011512
X014945Y006115
X006954Y014512
X017754Y017312
X020954Y015312
X023954Y016312
X008945Y006115
X013154Y016112
X017945Y006115
X020954Y014312
X009954Y014512
X023954Y015312
X011945Y003115
X003954Y011512
X001954Y014512
X005945Y003515
X020954Y013312
X010954Y014512
X023954Y014312
X014945Y003115
X006954Y011512
X012945Y006115
X005945Y002515
X020954Y012312
T102
X023945Y003115
X023945Y006095
X020554Y004112
X020554Y007092
T103
X007945Y005115
X005945Y005115
X010945Y006117
X007945Y006117
X005945Y006117
X010945Y005115
T104
X002945Y001115
X005954Y009312
X017954Y014312
X011954Y008312
X011945Y001115
X009954Y018312
X020954Y008312
X014954Y009312
X005954Y008312
X001954Y018312
X005945Y001115
X010954Y018312
X014954Y008312
X008954Y009312
X014945Y001115
X017954Y009312
X026254Y002112
X004954Y018312
X008954Y008312
X008945Y001115
X017954Y008312
X025254Y009112
X015954Y014312
X003954Y009312
X007954Y018312
X012954Y009312
X016954Y018312
X021254Y002112
X003954Y008312
X003945Y001115
X012954Y008312
X006954Y009312
X012945Y001115
X015954Y009312
X021254Y001112
X002954Y018312
X006954Y008312
X006945Y001115
X015954Y008312
X009954Y009312
X011954Y018312
X015945Y001115
X018954Y009312
X001954Y009312
X005954Y018312
X009954Y008312
X010954Y009312
X018954Y008312
X026254Y009112
X026254Y018312
X001954Y008312
X001945Y001115
X010954Y008312
X004954Y009312
X016954Y014312
X008954Y018312
X013954Y009312
X017954Y018312
X022254Y002112
X026254Y017312
X004954Y008312
X004945Y001115
X007954Y009312
X013954Y008312
X013945Y001115
X016954Y009312
X022254Y001112
X026254Y016312
X025254Y002112
X007954Y008312
X003954Y018312
X007945Y001115
X016954Y008312
X016945Y001115
X026254Y015312
X019954Y009312
X002954Y009312
X006954Y018312
X011954Y009312
X015954Y018312
X019954Y008312
X020954Y009312
X020254Y002112
X002954Y008312
T00
M30
